# xmcd
#
# Track frame offsets:
#	150
#	15753
#	32913
#	46146
#	65877
#	77112
#	90045
#	101210
#	116360
#	136743
#	150871
#	166766
#	180290
#
# Disc length: 2565 seconds
#
# Revision: 0
# Processed by: cddbd v1.5.2PL0 Copyright (c) Steve Scherf et al.
# Submitted via: dBpowerAMP V4.0
#
DISCID=860a030d
DTITLE=Hungry John - Bad Man Risin'
DYEAR=2008
DGENRE=Blues
TTITLE0=Bad Man Risin'
TTITLE1=I Feel Lucky
TTITLE2=Santorini
TTITLE3=The Devil And The Deep Blue Sea
TTITLE4=Shave Your Legs
TTITLE5=Like A Fever
TTITLE6=Sterling
TTITLE7=Hey Babe
TTITLE8=Bergen Blues
TTITLE9=Rancid
TTITLE10=The Ship Has Sailed
TTITLE11=Sometimes (I Need A Drink)
TTITLE12=Slide Away
EXTD=Bluesartist from Begen, Norway, which holds international standards
EXTT0=
EXTT1=
EXTT2=
EXTT3=
EXTT4=
EXTT5=
EXTT6=
EXTT7=
EXTT8=
EXTT9=
EXTT10=
EXTT11=
EXTT12=
PLAYORDER=
